<mxfile host="app.diagrams.net" modified="2023-10-11T05:28:53.268Z" agent="Mozilla/5.0 (Macintosh; Intel Mac OS X 10_15_7) AppleWebKit/537.36 (KHTML, like Gecko) Chrome/117.0.0.0 Safari/537.36 Edg/117.0.2045.55" etag="Rj4L5i3M0pmgPsvfBGnD" version="22.0.4" type="device">
  <diagram id="W96dDOzDhBkqYD2ID5M1" name="Page-1">
    <mxGraphModel dx="2284" dy="771" grid="1" gridSize="10" guides="1" tooltips="1" connect="1" arrows="1" fold="1" page="1" pageScale="1" pageWidth="850" pageHeight="1100" math="0" shadow="0" extFonts="Open Sans^https://fonts.googleapis.com/css?family=Open+Sans">
      <root>
        <mxCell id="0" />
        <mxCell id="1" parent="0" />
        <mxCell id="DpyJax7mcGni7a-zrwex-21" value="&lt;font color=&quot;#cc4141&quot; face=&quot;Helvetica&quot; size=&quot;1&quot;&gt;&lt;span style=&quot;font-size: 43px&quot;&gt;&lt;b&gt;SSW.Dory Website - Architecture Diagram&lt;/b&gt;&lt;/span&gt;&lt;/font&gt;" style="text;html=1;strokeColor=none;fillColor=none;align=center;verticalAlign=middle;rounded=0;fontFamily=Open Sans;FType=g;" parent="1" vertex="1">
          <mxGeometry x="180.37" y="240" width="480" height="50" as="geometry" />
        </mxCell>
        <mxCell id="MN2vvNGrwrv_rpkmB_cv-92" value="&lt;font size=&quot;1&quot;&gt;&lt;b style=&quot;font-size: 22px&quot;&gt;GitHub | SSW.Dory&amp;nbsp;&lt;/b&gt;&lt;/font&gt;" style="text;html=1;strokeColor=none;fillColor=none;align=left;verticalAlign=middle;whiteSpace=wrap;rounded=0;" parent="1" vertex="1">
          <mxGeometry x="30.000000000000004" y="870" width="345.1" height="25" as="geometry" />
        </mxCell>
        <mxCell id="MN2vvNGrwrv_rpkmB_cv-93" value="&lt;font face=&quot;Open Sans&quot;&gt;&lt;font style=&quot;font-size: 22px&quot;&gt;&lt;b&gt;sswdory.com&lt;/b&gt;&lt;/font&gt;&lt;br&gt;&lt;/font&gt;" style="text;html=1;strokeColor=none;fillColor=none;align=center;verticalAlign=middle;whiteSpace=wrap;rounded=0;" parent="1" vertex="1">
          <mxGeometry x="536.64" y="870" width="173.28" height="20" as="geometry" />
        </mxCell>
        <mxCell id="9p1Rz8y7n3f6aisQ9WXs-5" value="" style="group" parent="1" vertex="1" connectable="0">
          <mxGeometry x="371" y="541.63" width="107.13" height="100" as="geometry" />
        </mxCell>
        <mxCell id="CI4cP-P56cy29OpNdCQB-2" value="&lt;font face=&quot;Open Sans&quot;&gt;GitHub Action&lt;/font&gt;" style="text;html=1;strokeColor=none;fillColor=none;align=center;verticalAlign=middle;whiteSpace=wrap;rounded=0;fontSize=14;fontStyle=1" parent="9p1Rz8y7n3f6aisQ9WXs-5" vertex="1">
          <mxGeometry y="80" width="107.13" height="20" as="geometry" />
        </mxCell>
        <mxCell id="9p1Rz8y7n3f6aisQ9WXs-10" style="edgeStyle=orthogonalEdgeStyle;rounded=0;orthogonalLoop=1;jettySize=auto;html=1;strokeWidth=3;" parent="9p1Rz8y7n3f6aisQ9WXs-5" source="Lrb_U7zb_OvKsGqzItBG-16" edge="1">
          <mxGeometry relative="1" as="geometry">
            <mxPoint x="-151" y="36.370000000000005" as="targetPoint" />
          </mxGeometry>
        </mxCell>
        <mxCell id="Lrb_U7zb_OvKsGqzItBG-16" value="" style="shape=image;verticalLabelPosition=bottom;labelBackgroundColor=#ffffff;verticalAlign=top;aspect=fixed;imageAspect=0;image=data:image/png,iVBORw0KGgoAAAANSUhEUgAAAHgAAAB4CAYAAAA5ZDbSAAAAGXRFWHRTb2Z0d2FyZQBBZG9iZSBJbWFnZVJlYWR5ccllPAAAAyRpVFh0WE1MOmNvbS5hZG9iZS54bXAAAAAAADw/eHBhY2tldCBiZWdpbj0i77u/IiBpZD0iVzVNME1wQ2VoaUh6cmVTek5UY3prYzlkIj8+IDx4OnhtcG1ldGEgeG1sbnM6eD0iYWRvYmU6bnM6bWV0YS8iIHg6eG1wdGs9IkFkb2JlIFhNUCBDb3JlIDUuMy1jMDExIDY2LjE0NTY2MSwgMjAxMi8wMi8wNi0xNDo1NjoyNyAgICAgICAgIj4gPHJkZjpSREYgeG1sbnM6cmRmPSJodHRwOi8vd3d3LnczLm9yZy8xOTk5LzAyLzIyLXJkZi1zeW50YXgtbnMjIj4gPHJkZjpEZXNjcmlwdGlvbiByZGY6YWJvdXQ9IiIgeG1sbnM6eG1wPSJodHRwOi8vbnMuYWRvYmUuY29tL3hhcC8xLjAvIiB4bWxuczp4bXBNTT0iaHR0cDovL25zLmFkb2JlLmNvbS94YXAvMS4wL21tLyIgeG1sbnM6c3RSZWY9Imh0dHA6Ly9ucy5hZG9iZS5jb20veGFwLzEuMC9zVHlwZS9SZXNvdXJjZVJlZiMiIHhtcDpDcmVhdG9yVG9vbD0iQWRvYmUgUGhvdG9zaG9wIENTNiAoTWFjaW50b3NoKSIgeG1wTU06SW5zdGFuY2VJRD0ieG1wLmlpZDpFNTE3OEEzMjk5QTAxMUUyOUExNUJDMTA0NkE4OTA0RCIgeG1wTU06RG9jdW1lbnRJRD0ieG1wLmRpZDoyQTQxNEFCQzk5QTExMUUyOUExNUJDMTA0NkE4OTA0RCI+IDx4bXBNTTpEZXJpdmVkRnJvbSBzdFJlZjppbnN0YW5jZUlEPSJ4bXAuaWlkOkU1MTc4QTMwOTlBMDExRTI5QTE1QkMxMDQ2QTg5MDREIiBzdFJlZjpkb2N1bWVudElEPSJ4bXAuZGlkOkU1MTc4QTMxOTlBMDExRTI5QTE1QkMxMDQ2QTg5MDREIi8+IDwvcmRmOkRlc2NyaXB0aW9uPiA8L3JkZjpSREY+IDwveDp4bXBtZXRhPiA8P3hwYWNrZXQgZW5kPSJyIj8+R7ClIwAADR5JREFUeNrsnQuwVWUVx79zeWUXNWB4RIhXCCNUVLiCQJoBlqCIYaIBUpRGltMICE6JxojSjIKlhTmkgmjkoClqcBkTHeSNIAooQkTIw3gooAKCXL39/+x1bvtezjl373P22nufc741s2ZzmXu/x/rt/T3Xt75EVVWVsVK4kiiESrRs3qI1Hp2hX4e2g5ZBW0GbiTaGNqr1Z0ehB6Efiu6CboVugW6Grt29d8/7FnD4ML+MRw9oL9FyaFOl7PZBV0GXiC4D9MMWcPBQ2+IxCNoP+u0UX2NYwq9+IbQC+hxgv2cBZw+1BR5DoddCu8e0mCugs6FPAvYeC9gb2D54jIReBW2QJy3hMejz0IcBeoEFfCLU+nhcBx0rg6V8lrXQ+6BPAXZlUQMWsMOg46HtC2yG8m/o3dJ8VxYdYMC9HI/J0I4FPhXdCB0DyHOLAjDAnonHA9DLimzNYT70FoDeWJCAAbaB9LF3RjjNiVo4zbqLfTRAHysYwIDbCY9Z0HONFcpb0CGA/E5eAwZYpv8L6Wu/ZLnWkCPSok0F6Kq8Awy4XP99DHqNZZlRnoGOAOSDeQMYcDvgMQfayfLzJBugAwH5X7EHDLjfMs6qTlPLzZfsE8iLg0y0JGC4g/FYYOFmJbTZArFhYFIvQLgj8JgJrW9Z5cTj6salpTsOHT60JjaAAfcmPKaZAnEgiFhow4GAvAeQV0UOWL7caZZL4HI5IG/P9UuulyPcwdIs2y9XRwYA8ruA/Hboo2gZLXNA1dByUJXPoH2yHV0nsoTLee5yO1oOdQp1YTbz5EQWcLlCtRL6TWv3UIWLId38rniV+ITLF2K6hRuJ0ObThYHOIAsd/s143JpjQQ9AOWigLzK3DQt9E4L1ZdO6A1qaY3259PsBBl0rA2+iZcvvDZP7Xu4Vbu8GpNuGgwjjOAAMhJ6U50A/Nc5SLTf4F6CuO1x1HYDHCzmmzz3lrkj37cAAy2b96yb3/VwOFlql2+xGPqcYx0eLXpX55ny3DvqwcXywPs5gx93QJjnmxf3kC7w4DXjtg8eZYDbrKzIVioaBPgRlXnRyX5EHYNlc9kOZO0vZP85QP9a9IoA8aZ/bAhlk4a37Bh53BGSM17z+IozBJo5HVK42znmhuAnL9AOZvsz38XeLAsp/vLDJKF42Bh40wflQ+VpbFU+HZ1GRuTK4uyNDWd6Twdu70J3Q90U5mDskfeNR+d1G0tdz0MPDaa1Fv2YcL8+zoKdn6AMnQe9F+Y5kYYPXA7JlI2Hzvaz7YHFt/UdABWLzVJqLs5kssDwKPRu6VFoEfhHrgvaIkPn+OVCu2F1snINufIFuyMUzUvphvnBBndq4IpNLbiJDQepLhc4MqCDbUJDTAzA8y5xAWl+E2R4j3xJpVb4IIK3teLQJqGicgnVK51yfqYkeFiBcyq4gEpFmO/RT6wG/UP8NEHAHYTXD8yBLmpHxCvNDK44EfcaYA66GfkbRPAjW3nLIGyGra/0AvlWhENYv+v+isVo31hNgfOp9jc4q0umWa7W0VUjzHGFX5xf8c62BKApwcrGTFRu0VEr+poyAJWzClUqZc3rTxX68x22g5eI0QBim/YKHGd2wCX0tX1UbNBCGaQEPVq7cAMtX3QaDUwLGp80AYtrRbO62fNVt0B0s26f6gq9Sznji7r17nil2umKDu5SzGZgKcD/FDJeHUKl8koliEy3p7x7ZJsMD0ttCI7TC55yj4c3dYLnWmLFwW5JeIBpnubil2ZRhF5NfcC+jFzdjqoWbsqnmvvVUpeQbCdPqJrqnUkbcEL/H4kwrk8RGGtLTDbiXUiZPxDWGY0y+YtrmCaXka3zBXZUyecRijMxGx5km0NnTD2mHQgZb8IbaLUdvAy6GPWynkHQbfsFa/sfzLDrPUqGUbmcC7qCU+GLLLXJbdSDgMqXEV1pukduqTAswXWO3WW6ehbaq1ALcSiHh7RhgfW65eZ4uEe5OhaRbEXAzhYQ/sdh8ywGFNJtpAf7I8vItB7UAa/hJ1bO8fIvGpsPJBKwRJaex5eVbNNyKG5YoFbbU8vItp2gkqgXYxs6Kic20ALfyGw2mmEVOLrbQAlyp9Da2tug8C22l4a5cWaI4pTnDcvMs7ZTS/ahEaYKtWehCFK2P4QAB71VKvNxy8ywXKKW7l4B3KiXe03KL3FY7NQGfJ+64VjKPoLlm0FkT8GalxLlc2dsirFN6G72l3c0EvEmx8IMsvzrl+4ppb0pIMNDtShlw25CxKQ9bjimbZ3ZhjD6kdTD+tBKJhvqhUgYs+FCLMq0MVYS7j2yTS5WrFSsxOhlEzEqNr5fbg6MVszgeNjJp+KWKGfGQ1Y8s0hPkeqN7+/kyN+AlypWZJLGgrZjquNiTlLNZ7AbMH44qZkbHvvst2mr5g9FxdkzK0RqAJSzuIuVK/RRv7hD79bZgkJQRytksSoY6dg9+Xgyhfo+ggj2KGC5P/IVxDWB1CGg34OdDyJgh/Oajot2LEC7rPM+Ec+nInBMA45NmxPQwjptwgPESKvzdIoLL+Cf/NEp+V7VkpbA84Qum/DWkOrOiFaj4BGi9AgZbD8qwSXMVFzRqyyz3D7UB/80454rCEOb9W+hCGOHcAoTbRaaft5vwbmc9JgxTA8anvdfdfockHHishkH+BG1bAGDPgP7FOCtJYY815tQOmZFIUcBL8HjV54oJR21MmNECuHnNLbD6Wb6B7Cb+jIKuzCOotONFxonUy1CCUXU7vWG3VzMClgLzCrvzPSTI20NOrX2SEH/fHI9R0DEme39fhl56Sl6eNXJXQ6z6V+Pc68SgY4yQH7WT4Vuw0Xm1/zORYTLuNfrLb5Dw72r9/SJZSZkpX+T5ORae18G9Jq0F7x1ajzwPhAyU26q8zqdcWinC/UqM3rnrYZMnvQJm88pAXV6DqDwAvQ0ZHHXN+RhprUJcUmYbV3i9gITbnAxewuvvfh30NTtyMcmD0o/SQ/TUGPcStEPHVFfrZLo3iTtAM3xkwhdiCDJZ40qD3gq3SBPG5vbigCvGLuIid54BQ+4qI+FGJt4yAjaYkW6qkk7YRK/zkQm3vpbAKO6r1ugOxGtp2TcMMsGHaxqjBVdmFdwnHxdzuOulK0wpdV1txxUYv+GQeD9SXxhnaYr0+sukP5BBBbSL9g1oMpjiix7XW8/7syvMtNiQ6Q2uMP7vLuRa69/ddwewH4ZyqY59xOMBVey+MK63kxnCvTGFOy8T3DoBi7AP9btXzL1Od4g+TnHYn02U9DbmWDE68z0boiEZxPtIzOCSya/q+qUSD28wR2h3ZlGAAdIkG/Gq5IrVOJne8N6CXBzuX0E6oV2VJzebvhIzwBOEjcn1C6bQG2NVFoWY4rq1cwN0oUybOJfk1bXvZFm5pREYNE6R+zj4m+zlF0s8vsHsO4cZ/xdMdjQn3jLC+3i54/FH4xy6mgL9zEeaHJm/FIFR4xLUnAyGpbtONtsv2MilyKOymcrU+vll6Z8/ZdMN5T2JXOa7XeactZ3kPzCOOxH77wtlQv9mBIbdGhPAoyRavCfxvY2FJpbLYX6d2XuiUMvSpEe402ShZCx9ifB/TYyzf7ofP38iv1cuCyYvsqkP26rIvwyP/0QMdxbq7sv22Tikj4Su9fk392fY2OdLxrXqm6Fnyf/xanVueKwQ2EZeArYGN0Zk3IMRw10ntjeqgPEGcXmQ9xv6OTjOpnVCmvS24HGacc4wrXb1M9vki0lO0XgX0GXQn0Rk4MoI4bKbulJG874ka08D8Y5cYPw5kf0ShXzI5KGgvtw52h/RoCrlyqBWE5388pZJn+hnNWkqDDVZdmryTaIoM207JFu4OQEWyC/gMdwnZPajbwDypXkGuDQCuMNh45xcqAJxBpOtxceyeGHoljPdOL5Euzzm9VU89oQdjzrkUTThjkQdc76RJRGgATh8n5lDq8Blt/Uy3zwg82GWj+GOuXFRJqPrptAmEXh0hAU4+eUG4sIcWAhbFghGYFC12SY77/32xrsHSdw34HMZUF0nXV8gEujBbBSMW4vfMY6HpaacVIBwabM+QcINHLBApo9UN+ibxopX4cJRt3SrfbECLJB5NoabCo9bdnUKXaN6us8TxR6wQD4E/TH+eYNxnOOs1BTa5EbYaLisDpq8AuwC/ahxnO5WWKbVQlt0CWIaFDlggcxoevToGG387ykX2iiZ26O9YJNNYWQYWngjLkxAf28c78TnihAu69wJNpgS5iJN6PGrOJiA0ke6j3G2BAtd6Ld9KesM3Rp25pEFKENl6cTGTfwfGv/uMPkQkmmD1K0cdX05qkJEGoGOJwahPNLCQ108drnc45/ui6C4Xl2HV0hdzmbdwvDdziSxuxmlZfMWdA5InrNNtWK1GkYrj6hs9Cztmgb+08Y517w0TvaM7dU3ssF+jXH8v3pIWXm4+WdaiwIeylSGB0/vX2KcTQG2ONwUeBpl2h9HOyaqqqqMlcIVGwW2wOV/AgwA+MQnGo+UarEAAAAASUVORK5CYII=;" parent="9p1Rz8y7n3f6aisQ9WXs-5" vertex="1">
          <mxGeometry x="17.129999999999995" width="72.88" height="72.88" as="geometry" />
        </mxCell>
        <mxCell id="9p1Rz8y7n3f6aisQ9WXs-7" value="" style="group" parent="1" vertex="1" connectable="0">
          <mxGeometry x="376" y="322.97" width="98.5" height="109.27999999999997" as="geometry" />
        </mxCell>
        <mxCell id="CI4cP-P56cy29OpNdCQB-8" value="&lt;font face=&quot;Open Sans&quot; style=&quot;font-size: 14px;&quot;&gt;NextJS Build&lt;br style=&quot;font-size: 14px;&quot;&gt;&lt;/font&gt;" style="text;html=1;strokeColor=none;fillColor=none;align=center;verticalAlign=middle;whiteSpace=wrap;rounded=0;fontSize=14;fontStyle=1;container=0;" parent="9p1Rz8y7n3f6aisQ9WXs-7" vertex="1">
          <mxGeometry y="77.02999999999997" width="98.5" height="32.25" as="geometry" />
        </mxCell>
        <mxCell id="9p1Rz8y7n3f6aisQ9WXs-2" value="" style="shape=image;verticalLabelPosition=bottom;verticalAlign=top;imageAspect=0;aspect=fixed;image=data:image/svg+xml,PHN2ZyB4bWxucz0iaHR0cDovL3d3dy53My5vcmcvMjAwMC9zdmciIHdpZHRoPSIxNSIgdmlld0JveD0iMCAwIDE1IDE1IiBoZWlnaHQ9IjE1IiBmaWxsPSJub25lIj48cGF0aCBmaWxsLXJ1bGU9ImV2ZW5vZGQiIGZpbGw9IiMwMDAiIGQ9Im0wIDcuNWMwLTQuMTQyMTQgMy4zNTc4Ni03LjUgNy41LTcuNSA0LjE0MjEgMCA3LjUgMy4zNTc4NiA3LjUgNy41IDAgMi41ODctMS4zMDk4IDQuODY4MS0zLjMwMjUgNi4yMTYzbC02Ljc5MDYzLTkuNTA2ODhjLS4xMjYzNC0uMTc2ODctLjM1MjQ3LS4yNTE4Ni0uNTU5NDYtLjE4NTUzcy0uMzQ3NDEuMjU4NzktLjM0NzQxLjQ3NjE1djcuNDk5OTZoMXYtNS45Mzk3M2w1LjgyOTkgOC4xNjE4M2MtMS4wMDMyOS40OTgtMi4xMzM5Ljc3NzktMy4zMjk5Ljc3NzktNC4xNDIxNCAwLTcuNS0zLjM1NzktNy41LTcuNXptMTAgMi41di02aDF2NnoiIGNsaXAtcnVsZT0iZXZlbm9kZCIvPjwvc3ZnPg==;container=0;" parent="9p1Rz8y7n3f6aisQ9WXs-7" vertex="1">
          <mxGeometry x="11" width="73.88" height="73.88" as="geometry" />
        </mxCell>
        <mxCell id="9p1Rz8y7n3f6aisQ9WXs-8" value="" style="group" parent="1" vertex="1" connectable="0">
          <mxGeometry x="100" y="535.6800000000001" width="150" height="111.90999999999997" as="geometry" />
        </mxCell>
        <mxCell id="DpyJax7mcGni7a-zrwex-3" value="" style="verticalLabelPosition=bottom;html=1;verticalAlign=top;align=center;strokeColor=none;fillColor=#00BEF2;shape=mxgraph.azure.storage_blob;" parent="9p1Rz8y7n3f6aisQ9WXs-8" vertex="1">
          <mxGeometry x="50" y="12" width="50" height="45" as="geometry" />
        </mxCell>
        <mxCell id="DpyJax7mcGni7a-zrwex-49" value="&lt;font face=&quot;Open Sans&quot; style=&quot;font-size: 14px;&quot;&gt;SSW.Dory&lt;br style=&quot;font-size: 14px;&quot;&gt;Azure Blob Storage&lt;/font&gt;" style="text;html=1;align=center;verticalAlign=middle;resizable=0;points=[];;autosize=1;fontSize=14;fontStyle=1" parent="9p1Rz8y7n3f6aisQ9WXs-8" vertex="1">
          <mxGeometry y="61.90999999999997" width="150" height="50" as="geometry" />
        </mxCell>
        <mxCell id="MN2vvNGrwrv_rpkmB_cv-78" value="" style="shape=image;verticalLabelPosition=bottom;labelBackgroundColor=#ffffff;verticalAlign=top;aspect=fixed;imageAspect=0;image=data:image/png,iVBORw0KGgoAAAANSUhEUgAAABwAAAAcCAYAAAByDd+UAAAABGdBTUEAALGPC/xhBQAAACBjSFJNAAB6JQAAgIMAAPn/AACA6QAAdTAAAOpgAAA6mAAAF2+SX8VGAAAACXBIWXMAABJ0AAASdAHeZh94AAAAAWJLR0QtzdpBPQAAACV0RVh0ZGF0ZTpjcmVhdGUAMjAxNC0xMC0wM1QwMjozNDo0NCswMjowMEAu0ikAAAAldEVYdGRhdGU6bW9kaWZ5ADIwMTQtMTAtMDNUMDI6MzQ6NDQrMDI6MDAxc2qVAAABZElEQVRIS+2WsYrCQBRF74wTExWiWFit1XYKClv4Lf6BoI1f448IC6K/YCMrNlYWKguCiIomJrPzwuyW2QkEG3PgVs/HHVKcJ9tut3K5XEIIARMejweazSYYY5jNZrBtW0/i8X0frVYLbDqdytFohGKxqEfxXK9X9Pt9cM7R7XZRqVT0JJ7L5YLhcAhuWRZKpVKi0A7Fdd1EcRwHXD/gaWSFqZMVps4LFJLjSDtJQjuU0+mUKLfbDWyz2cjFYhGpyoQ/CSvZf04msJWuTKC9j3YbTNlf3u/3yP4mSClhFwrgxyO81QrM8KEyCCDqdbD9fi/X6zVyuZwexROoxfdGA858jq9eD6Jc1pN4QnVl3gYDujI8uoW/F+C/0G9ph+XzsNRpMo1Q4fRl9AOeRlaYOllh6rxAIbmRdJUktCPVP/BA6SpJpOeBnc9neTgcIl2ZEIYhqrUaxG6H7/E40pUJVOZ2OvgBk6MLCQ5qMBsAAAAASUVORK5CYII=;" parent="9p1Rz8y7n3f6aisQ9WXs-8" vertex="1">
          <mxGeometry x="99.99999999999999" width="22.88" height="22.88" as="geometry" />
        </mxCell>
        <mxCell id="9p1Rz8y7n3f6aisQ9WXs-9" style="edgeStyle=orthogonalEdgeStyle;rounded=0;orthogonalLoop=1;jettySize=auto;html=1;entryX=0.5;entryY=0;entryDx=0;entryDy=0;strokeWidth=3;" parent="1" source="CI4cP-P56cy29OpNdCQB-8" target="Lrb_U7zb_OvKsGqzItBG-16" edge="1">
          <mxGeometry relative="1" as="geometry" />
        </mxCell>
        <mxCell id="9p1Rz8y7n3f6aisQ9WXs-11" value="" style="group" parent="1" vertex="1" connectable="0">
          <mxGeometry x="113.36000000000004" y="740" width="123.27999999999997" height="90" as="geometry" />
        </mxCell>
        <mxCell id="CI4cP-P56cy29OpNdCQB-5" value="" style="pointerEvents=1;shadow=0;dashed=0;html=1;strokeColor=none;fillColor=#505050;labelPosition=center;verticalLabelPosition=bottom;verticalAlign=top;outlineConnect=0;align=center;shape=mxgraph.office.concepts.website;" parent="9p1Rz8y7n3f6aisQ9WXs-11" vertex="1">
          <mxGeometry x="20.389999999999986" width="82.5" height="65.5" as="geometry" />
        </mxCell>
        <mxCell id="CI4cP-P56cy29OpNdCQB-7" value="&lt;font face=&quot;Open Sans&quot; style=&quot;font-size: 14px;&quot;&gt;SSW.Dory Website (Static)&lt;br style=&quot;font-size: 14px;&quot;&gt;&lt;/font&gt;" style="text;html=1;strokeColor=none;fillColor=none;align=center;verticalAlign=middle;whiteSpace=wrap;rounded=0;fontSize=14;fontStyle=1" parent="9p1Rz8y7n3f6aisQ9WXs-11" vertex="1">
          <mxGeometry y="70" width="123.28" height="20" as="geometry" />
        </mxCell>
        <mxCell id="9p1Rz8y7n3f6aisQ9WXs-12" style="edgeStyle=orthogonalEdgeStyle;rounded=0;orthogonalLoop=1;jettySize=auto;html=1;strokeWidth=3;" parent="1" source="DpyJax7mcGni7a-zrwex-49" target="CI4cP-P56cy29OpNdCQB-5" edge="1">
          <mxGeometry relative="1" as="geometry" />
        </mxCell>
        <mxCell id="9p1Rz8y7n3f6aisQ9WXs-20" value="" style="group" parent="1" vertex="1" connectable="0">
          <mxGeometry x="595.3700000000001" y="690.82" width="65" height="158.37" as="geometry" />
        </mxCell>
        <mxCell id="9p1Rz8y7n3f6aisQ9WXs-19" value="" style="rounded=0;whiteSpace=wrap;html=1;" parent="9p1Rz8y7n3f6aisQ9WXs-20" vertex="1">
          <mxGeometry width="65" height="158.37" as="geometry" />
        </mxCell>
        <mxCell id="9p1Rz8y7n3f6aisQ9WXs-13" value="&lt;font style=&quot;font-size: 16px;&quot;&gt;User&lt;/font&gt;" style="shape=umlActor;verticalLabelPosition=bottom;verticalAlign=top;html=1;outlineConnect=0;" parent="9p1Rz8y7n3f6aisQ9WXs-20" vertex="1">
          <mxGeometry x="12.5" y="30" width="40" height="80" as="geometry" />
        </mxCell>
        <mxCell id="T8ZVRXAB5mJE8n6GtlTf-4" style="edgeStyle=orthogonalEdgeStyle;rounded=0;orthogonalLoop=1;jettySize=auto;html=1;entryX=0;entryY=0.5;entryDx=0;entryDy=0;strokeWidth=3;" edge="1" parent="1" source="T8ZVRXAB5mJE8n6GtlTf-1" target="9p1Rz8y7n3f6aisQ9WXs-19">
          <mxGeometry relative="1" as="geometry" />
        </mxCell>
        <mxCell id="T8ZVRXAB5mJE8n6GtlTf-1" value="&lt;font style=&quot;font-size: 16px;&quot;&gt;Azure Front Door&lt;/font&gt;" style="image;aspect=fixed;html=1;points=[];align=center;fontSize=12;image=img/lib/azure2/networking/Front_Doors.svg;" vertex="1" parent="1">
          <mxGeometry x="391.25" y="740" width="68" height="60" as="geometry" />
        </mxCell>
        <mxCell id="T8ZVRXAB5mJE8n6GtlTf-3" style="edgeStyle=orthogonalEdgeStyle;rounded=0;orthogonalLoop=1;jettySize=auto;html=1;entryX=-0.077;entryY=0.533;entryDx=0;entryDy=0;entryPerimeter=0;strokeWidth=3;" edge="1" parent="1" source="CI4cP-P56cy29OpNdCQB-5" target="T8ZVRXAB5mJE8n6GtlTf-1">
          <mxGeometry relative="1" as="geometry" />
        </mxCell>
      </root>
    </mxGraphModel>
  </diagram>
</mxfile>
